<svg width="47" height="51" viewBox="0 0 47 51" fill="none" xmlns="http://www.w3.org/2000/svg">
<path d="M14.0417 40.25C11.5208 40.25 9.48125 42.4625 9.48125 45.1666C9.48125 47.8708 11.5208 50.0833 14.0417 50.0833C16.5625 50.0833 18.625 47.8708 18.625 45.1666C18.625 42.4625 16.5625 40.25 14.0417 40.25ZM0.291668 0.916626V5.83329H4.875L13.125 24.492L10.0313 30.515C9.66458 31.2033 9.45833 32.0145 9.45833 32.875C9.45833 35.5791 11.5208 37.7916 14.0417 37.7916H41.5417V32.875H15.0042C14.6833 32.875 14.4313 32.6045 14.4313 32.2604L14.5 31.9654L16.5625 27.9583H33.6354C35.3542 27.9583 36.8667 26.9504 37.6458 25.4262L45.85 9.47163C46.0333 9.12746 46.125 8.70954 46.125 8.29163C46.125 6.93954 45.0938 5.83329 43.8333 5.83329H9.93958L7.78542 0.916626H0.291668ZM36.9583 40.25C34.4375 40.25 32.3979 42.4625 32.3979 45.1666C32.3979 47.8708 34.4375 50.0833 36.9583 50.0833C39.4792 50.0833 41.5417 47.8708 41.5417 45.1666C41.5417 42.4625 39.4792 40.25 36.9583 40.25Z" fill="#EFEFEF"/>
</svg>
