<svg width="51" height="37" viewBox="0 0 51 37" fill="none" xmlns="http://www.w3.org/2000/svg">
<path d="M25.5 0.0625C14.0417 0.0625 4.25625 7.70792 0.291664 18.5C4.25625 29.2921 14.0417 36.9375 25.5 36.9375C36.9583 36.9375 46.7438 29.2921 50.7084 18.5C46.7438 7.70792 36.9583 0.0625 25.5 0.0625ZM25.5 30.7917C19.175 30.7917 14.0417 25.285 14.0417 18.5C14.0417 11.715 19.175 6.20833 25.5 6.20833C31.825 6.20833 36.9583 11.715 36.9583 18.5C36.9583 25.285 31.825 30.7917 25.5 30.7917ZM25.5 11.125C21.6958 11.125 18.625 14.4192 18.625 18.5C18.625 22.5808 21.6958 25.875 25.5 25.875C29.3042 25.875 32.375 22.5808 32.375 18.5C32.375 14.4192 29.3042 11.125 25.5 11.125Z" fill="#FBF6F6"/>
</svg>
